<?xml version="1.0" standalone="no"?>
<!DOCTYPE svg PUBLIC "-//W3C//DTD SVG 20010904//EN"
 "http://www.w3.org/TR/2001/REC-SVG-20010904/DTD/svg10.dtd">
<svg version="1.0" xmlns="http://www.w3.org/2000/svg"
 width="1280.000000pt" height="1280.000000pt" viewBox="0 0 1280.000000 1280.000000"
 preserveAspectRatio="xMidYMid meet">
<metadata>
Created by potrace 1.11, written by Peter Selinger 2001-2013
</metadata>
<g transform="translate(0.000000,1280.000000) scale(0.100000,-0.100000)"
fill="#000000" stroke="none">
<path d="M2036 10322 c-3 -6 -25 -10 -49 -9 -47 0 -87 -10 -87 -23 0 -5 -10
-6 -22 -4 -13 3 -29 6 -35 6 -7 1 -13 5 -13 9 0 4 -10 5 -22 2 -13 -3 -31 -6
-40 -6 -10 -1 -18 -4 -18 -8 0 -3 -11 -4 -24 -2 -15 3 -31 -2 -43 -14 -11 -11
-31 -18 -55 -17 -21 0 -38 -3 -38 -8 0 -5 -4 -6 -10 -3 -5 3 -20 0 -32 -7 -23
-12 -29 -14 -49 -17 -5 0 -7 -6 -3 -13 5 -8 2 -9 -9 -5 -10 3 -17 2 -17 -3 0
-5 -16 -12 -35 -16 -20 -3 -42 -12 -48 -19 -7 -7 -54 -32 -105 -57 -51 -24
-89 -48 -85 -51 3 -4 -1 -7 -9 -7 -9 0 -34 -17 -55 -37 -21 -21 -40 -38 -43
-38 -7 0 -79 -75 -72 -75 3 0 -5 -9 -18 -20 -13 -11 -20 -20 -16 -20 4 0 1 -7
-6 -15 -31 -34 -38 -45 -31 -45 4 0 0 -5 -10 -11 -9 -6 -15 -14 -12 -20 4 -5
1 -9 -5 -9 -6 0 -8 -4 -5 -10 3 -5 2 -10 -2 -10 -9 0 -37 -59 -34 -72 0 -5 -3
-8 -8 -8 -5 0 -12 -16 -15 -35 -4 -19 -11 -35 -17 -35 -6 0 -7 -4 -4 -10 8
-13 -26 -59 -43 -60 -7 0 -11 -4 -7 -9 3 -5 -4 -12 -15 -16 -11 -4 -18 -11
-15 -16 4 -5 1 -9 -5 -9 -6 0 -15 -11 -20 -25 -5 -14 -14 -25 -20 -25 -6 0 -8
-5 -5 -10 3 -6 -1 -13 -9 -16 -9 -3 -16 -10 -16 -16 0 -15 -27 -38 -35 -30 -4
4 -5 2 -3 -3 3 -10 -7 -25 -47 -68 -11 -12 -19 -26 -17 -30 1 -4 -5 -10 -13
-13 -8 -4 -15 -12 -15 -20 0 -8 -4 -14 -10 -14 -5 0 -10 -6 -10 -14 0 -8 -10
-22 -22 -30 -12 -9 -18 -16 -13 -16 6 0 6 -3 0 -8 -17 -12 -65 -91 -65 -107 0
-8 -4 -15 -10 -15 -5 0 -10 -9 -10 -20 0 -11 -8 -34 -18 -52 -10 -18 -19 -41
-20 -50 -4 -42 -6 -48 -13 -48 -4 0 -6 -11 -5 -25 2 -14 -2 -36 -9 -49 -7 -14
-11 -27 -9 -29 3 -2 -1 -17 -7 -33 -17 -42 -19 -74 -6 -74 7 0 6 -4 -3 -10 -8
-5 -11 -10 -6 -10 5 0 2 -8 -5 -17 -10 -11 -10 -14 -1 -9 6 4 12 3 12 -1 0 -5
-6 -15 -12 -22 -10 -11 -10 -13 0 -7 14 8 17 -10 2 -19 -5 -3 -10 -11 -10 -16
0 -6 3 -8 8 -5 11 7 9 -58 -3 -66 -6 -5 -6 -8 2 -8 7 0 10 -10 7 -25 -2 -14
-1 -25 4 -25 4 0 8 -9 9 -20 1 -13 -2 -18 -10 -13 -8 4 -7 1 1 -9 8 -9 15 -32
17 -50 2 -18 4 -33 5 -33 2 0 10 -36 12 -57 1 -10 6 -18 10 -18 4 0 8 -13 8
-29 0 -16 7 -36 15 -44 8 -8 11 -17 8 -21 -4 -3 -2 -6 4 -6 10 0 26 -36 24
-52 -1 -5 4 -8 11 -8 6 0 9 -3 5 -6 -3 -4 1 -13 9 -21 8 -8 12 -19 9 -24 -4
-5 1 -9 10 -9 9 0 13 -4 10 -10 -3 -5 -1 -10 5 -10 6 0 8 -4 5 -10 -3 -5 -1
-10 4 -10 6 0 11 -7 11 -15 0 -8 14 -28 30 -45 16 -17 30 -35 30 -39 0 -15 31
-22 48 -11 10 5 12 10 7 10 -6 0 -10 15 -10 33 1 17 -1 37 -4 42 -3 6 -7 33
-7 61 -1 29 -5 57 -8 63 -4 6 -2 11 4 11 7 0 8 6 1 18 -22 41 34 52 67 14 11
-12 22 -19 26 -15 3 3 6 0 6 -7 0 -7 3 -11 6 -7 4 3 13 0 20 -8 8 -7 25 -12
39 -11 14 2 25 0 25 -3 0 -9 51 -31 72 -31 10 0 18 -4 18 -9 0 -5 10 -9 23
-10 28 0 92 -9 92 -12 0 -2 43 -6 88 -8 11 -1 16 -6 12 -13 -4 -7 0 -5 7 4 9
11 19 14 28 8 8 -5 21 -6 29 -2 21 9 53 8 69 -1 6 -5 12 -4 12 0 0 5 17 8 38
7 20 -1 43 2 50 8 6 6 12 6 12 1 0 -5 9 -9 20 -10 11 -1 20 2 20 7 0 5 10 9
23 9 12 0 32 1 45 1 12 0 22 5 22 10 0 5 7 7 15 4 9 -4 15 0 15 7 1 10 5 9 14
-3 7 -10 21 -18 30 -18 9 0 16 -8 16 -20 0 -11 5 -20 10 -20 6 0 10 -9 10 -20
0 -11 5 -20 10 -20 6 0 10 -6 10 -14 0 -8 9 -18 20 -21 11 -4 18 -11 14 -16
-3 -5 -2 -9 3 -8 15 4 43 -13 43 -26 0 -7 7 -18 15 -25 8 -7 12 -17 8 -23 -3
-6 -1 -7 5 -3 7 4 12 3 12 -3 0 -5 18 -9 39 -8 22 0 37 5 34 10 -3 5 5 3 16
-5 12 -7 24 -23 27 -35 4 -13 10 -23 14 -23 6 0 14 -20 20 -50 1 -3 9 -13 17
-22 9 -10 13 -18 10 -18 -3 0 5 -12 18 -26 22 -24 27 -37 24 -60 0 -4 4 -10
10 -13 6 -4 12 -19 13 -34 1 -15 7 -27 13 -27 5 0 3 -5 -5 -10 -10 -6 -11 -10
-2 -10 6 0 12 -8 12 -17 0 -24 23 -87 35 -95 6 -5 5 -8 -3 -8 -9 0 -10 -5 -3
-19 6 -10 11 -35 13 -55 1 -20 5 -36 9 -36 4 0 6 -8 4 -17 -4 -30 36 -90 53
-79 9 5 46 -32 48 -49 0 -5 2 -25 2 -43 1 -19 6 -31 12 -27 6 3 10 -2 10 -12
1 -17 2 -16 15 2 32 44 37 48 46 33 5 -7 9 -9 9 -5 0 4 12 -4 27 -18 15 -14
30 -25 33 -25 3 0 14 -17 25 -37 10 -21 24 -44 29 -52 9 -12 13 -22 20 -61 8
-39 18 -50 41 -44 18 4 33 -3 60 -28 55 -51 109 -104 148 -146 7 -7 26 -27 42
-45 17 -17 29 -34 29 -37 -3 -9 23 -40 28 -34 4 3 9 -4 13 -15 3 -12 12 -21
19 -21 8 0 19 -13 26 -30 7 -16 17 -30 22 -30 5 0 7 -4 3 -9 -3 -5 1 -16 9
-23 20 -21 46 -75 39 -82 -4 -3 -1 -6 5 -6 7 0 12 -7 12 -15 0 -8 5 -15 10
-15 6 0 10 -7 10 -15 0 -8 5 -15 11 -15 5 0 7 -4 4 -10 -3 -5 -1 -10 4 -10 6
0 11 -5 11 -12 0 -7 12 -23 27 -35 14 -13 23 -23 19 -23 -7 0 32 -39 101 -100
54 -48 87 -97 71 -103 -10 -4 -10 -6 0 -6 6 -1 12 -8 12 -16 0 -8 5 -15 10
-15 6 0 10 -6 10 -13 0 -13 11 -29 52 -77 7 -8 11 -16 10 -19 -2 -2 0 -7 5
-10 5 -3 20 -22 33 -41 26 -38 79 -90 92 -90 4 0 8 -5 8 -10 0 -10 27 -44 90
-110 19 -21 62 -67 94 -104 33 -36 68 -68 78 -72 10 -3 16 -9 13 -14 -3 -5 4
-14 16 -20 11 -7 32 -21 46 -33 13 -12 26 -20 29 -17 2 3 11 -5 19 -18 9 -12
21 -20 26 -17 5 4 9 2 9 -3 0 -9 38 -35 99 -69 13 -7 32 -13 42 -13 11 0 19
-4 19 -10 0 -5 9 -10 20 -10 11 0 20 -4 20 -9 0 -5 15 -12 33 -16 17 -4 37 -9
44 -10 6 -2 22 -12 34 -24 13 -12 27 -21 31 -21 5 0 7 -3 5 -7 -3 -5 1 -14 9
-21 8 -7 14 -10 14 -7 0 6 5 3 65 -50 22 -19 46 -35 53 -35 6 0 12 -6 12 -13
0 -11 30 -36 47 -38 5 -1 20 -14 36 -30 15 -16 27 -26 27 -23 0 4 10 -6 22
-22 13 -16 27 -34 33 -41 27 -32 35 -43 69 -92 20 -28 41 -63 46 -77 5 -13 14
-24 21 -24 6 0 9 -5 7 -12 -2 -6 15 -31 39 -56 24 -24 41 -47 39 -51 -3 -4 3
-13 14 -21 10 -7 16 -19 13 -27 -3 -7 0 -13 7 -13 6 0 8 -4 5 -10 -3 -5 -1
-10 4 -10 6 0 11 -9 11 -20 0 -11 4 -20 9 -20 9 0 28 -44 20 -46 -2 -1 5 -12
16 -25 11 -12 14 -19 6 -14 -9 5 -7 -1 4 -19 10 -14 14 -26 10 -26 -4 0 -2 -7
5 -15 7 -8 9 -15 5 -15 -4 0 0 -12 10 -26 11 -18 12 -24 4 -18 -11 6 -12 5 -2
-7 12 -15 39 -116 35 -131 -1 -5 3 -8 9 -8 8 0 8 -5 -1 -15 -7 -9 -8 -15 -2
-15 6 0 9 -8 7 -18 -1 -9 3 -27 11 -38 7 -12 10 -25 7 -28 -10 -10 -12 -36 -3
-36 4 0 11 -7 14 -16 3 -9 2 -12 -5 -8 -6 3 -4 -7 5 -24 8 -16 13 -39 11 -51
-2 -11 3 -28 12 -36 8 -9 12 -22 9 -30 -3 -8 -1 -15 4 -15 6 0 8 -14 5 -31 -4
-19 -2 -28 5 -24 5 3 10 3 11 -2 4 -30 9 -62 14 -88 3 -16 6 -42 7 -57 1 -16
6 -28 10 -28 5 0 7 -4 4 -8 -3 -5 1 -32 9 -60 7 -29 10 -52 7 -52 -3 0 -1 -5
5 -11 6 -6 9 -18 6 -27 -5 -11 -3 -13 8 -7 12 8 12 6 0 -8 -11 -14 -11 -17 0
-17 11 0 11 -2 -1 -10 -10 -7 -11 -10 -2 -10 19 0 6 -50 -19 -74 -12 -12 -19
-15 -15 -8 8 13 -10 17 -18 3 -3 -4 -17 -7 -31 -6 -14 2 -25 -1 -25 -6 0 -6
-6 -7 -12 -2 -19 12 -98 10 -98 -2 0 -5 -4 -4 -9 4 -5 8 -16 11 -25 8 -9 -4
-16 -3 -16 1 0 4 -23 7 -50 7 -28 0 -50 -3 -50 -6 0 -4 -10 -5 -22 -5 -13 1
-30 -1 -39 -5 -8 -4 -21 -4 -29 1 -9 5 -20 4 -29 -3 -11 -9 -13 -9 -8 0 5 8
-2 10 -25 8 -18 -2 -35 -4 -38 -5 -3 -1 -8 -2 -12 -1 -5 0 -8 -3 -8 -8 0 -6
-9 -8 -20 -6 -11 2 -18 0 -15 -4 2 -5 -9 -14 -25 -21 -16 -7 -28 -16 -25 -20
5 -7 -44 -35 -57 -32 -5 1 -8 -2 -8 -6 0 -5 -11 -14 -25 -20 -19 -9 -25 -9
-25 1 0 6 -5 4 -11 -6 -5 -9 -21 -17 -35 -17 -14 0 -23 -4 -19 -9 3 -6 -3 -8
-13 -6 -10 1 -40 -3 -67 -10 -28 -7 -54 -10 -60 -7 -14 8 -48 7 -63 -2 -6 -4
-12 -5 -12 -2 0 3 -11 1 -25 -4 -18 -7 -25 -6 -25 3 0 8 -4 7 -10 -3 -6 -10
-10 -11 -10 -2 0 6 -11 12 -25 12 -14 0 -25 -4 -25 -9 0 -9 -33 -22 -60 -24
-8 -1 -21 -8 -28 -17 -12 -13 -12 -13 -6 0 7 13 5 13 -9 1 -9 -7 -17 -9 -17
-3 0 5 -9 12 -20 15 -13 3 -18 1 -13 -6 4 -7 0 -8 -13 -2 -10 4 -31 8 -46 8
-16 0 -28 4 -28 8 0 4 -17 13 -37 20 -21 6 -42 14 -48 17 -17 10 -65 9 -65 -2
0 -6 -5 -4 -10 4 -5 8 -10 10 -10 4 0 -13 -1 -13 -102 -15 -43 -1 -78 -5 -78
-10 0 -5 -9 -9 -20 -9 -11 0 -20 -4 -20 -10 0 -5 -4 -10 -10 -10 -13 0 -50
-37 -50 -50 0 -5 -7 -13 -16 -18 -9 -5 -15 -13 -15 -18 2 -16 -21 -76 -26 -70
-8 7 -38 -54 -53 -108 -7 -26 -17 -49 -22 -52 -5 -3 -4 -12 3 -20 12 -14 34
-20 26 -6 -3 4 1 13 9 20 10 9 14 9 14 1 0 -6 6 -9 14 -6 7 3 20 0 27 -6 8 -7
10 -8 6 -3 -4 5 -1 16 6 24 10 13 9 14 -3 7 -11 -6 -11 -4 2 11 9 10 17 23 17
27 0 18 68 58 106 62 16 2 45 -15 45 -26 0 -15 41 -71 47 -65 3 3 15 0 27 -6
11 -7 25 -12 29 -13 4 0 11 -5 15 -12 4 -6 21 -19 37 -27 22 -12 31 -13 37 -3
6 9 8 9 8 0 0 -8 9 -9 28 -3 16 4 36 4 45 -2 11 -6 17 -5 17 2 0 6 5 8 11 5
15 -10 69 -13 69 -4 0 4 12 4 28 0 15 -4 37 -6 50 -5 12 1 22 -2 22 -7 0 -24
52 -31 217 -31 96 0 177 2 180 6 3 3 12 1 19 -5 8 -6 14 -7 18 0 4 6 14 7 23
4 11 -4 14 -3 9 5 -5 8 -2 10 8 6 9 -3 13 -11 9 -18 -3 -6 4 -2 17 9 13 11 20
14 15 6 -6 -11 -5 -12 6 -5 19 12 83 12 91 0 4 -6 11 -6 20 2 8 6 19 7 27 3 8
-5 29 -3 50 6 43 18 141 24 141 8 0 -6 3 -6 8 1 4 7 42 10 107 8 107 -3 123
-5 143 -17 6 -5 12 -5 12 -1 0 3 6 1 14 -5 10 -8 16 -9 21 -1 3 6 11 8 16 5 5
-4 9 -2 9 4 0 5 18 9 40 7 22 -2 43 1 46 6 3 5 11 5 17 0 7 -4 23 -7 37 -5 14
2 32 3 40 3 8 0 32 -1 53 -1 20 0 37 -3 37 -7 0 -4 20 -7 45 -7 25 0 45 4 45
8 0 5 5 5 12 1 18 -12 58 -11 58 1 0 6 3 7 8 0 9 -13 52 -15 52 -2 0 5 7 4 15
-3 12 -10 15 -10 15 1 0 12 2 12 9 0 7 -11 9 -11 14 0 3 8 6 10 6 4 1 -6 24
-9 53 -8 29 1 60 -1 68 -4 8 -3 24 -8 35 -10 11 -2 24 -8 29 -13 5 -5 18 -5
33 1 16 6 22 5 18 -1 -9 -14 39 -12 53 2 9 9 12 9 12 -1 0 -9 4 -10 13 -4 6 5
25 10 41 11 17 1 32 5 35 10 7 9 78 8 87 -1 4 -4 16 -7 26 -7 11 0 16 -4 12
-11 -4 -8 0 -8 15 0 11 7 21 9 21 5 0 -3 7 0 16 7 9 7 21 14 28 16 6 1 31 9
56 18 61 23 83 26 90 16 7 -12 90 -22 90 -12 0 4 15 7 33 6 37 -1 59 4 53 14
-2 3 25 6 60 6 35 0 64 -2 64 -5 0 -15 58 -2 80 18 14 12 27 22 30 22 3 0 6 9
7 20 2 20 40 82 55 88 5 2 6 8 3 13 -4 5 0 6 8 3 8 -3 18 0 22 6 6 9 10 9 16
-1 7 -11 9 -10 9 4 0 14 4 16 16 9 9 -5 25 -7 34 -5 10 3 21 0 24 -6 4 -6 14
-11 22 -11 8 0 25 -11 38 -25 13 -13 27 -21 31 -17 5 4 5 1 1 -6 -4 -7 -1 -15
8 -18 9 -3 16 -12 16 -20 0 -18 26 -18 33 0 3 7 0 19 -6 25 -7 7 -7 11 -1 11
11 0 11 23 -1 55 -17 48 -32 71 -59 95 -17 14 -37 32 -45 41 -26 26 -79 42
-141 43 -33 1 -57 0 -55 -2 2 -3 -5 -17 -16 -33 -20 -29 -49 -30 -49 -2 0 8
-4 11 -10 8 -5 -3 -10 -1 -10 5 0 14 -33 -3 -61 -31 -20 -20 -49 -26 -49 -10
0 5 -11 9 -24 9 -20 0 -24 -5 -22 -29 3 -38 -12 -41 -48 -12 -28 24 -28 24
-46 3 -9 -11 -20 -16 -24 -13 -4 4 -4 0 -1 -9 10 -24 -9 -30 -32 -9 -17 16
-22 17 -38 5 -25 -18 -28 -18 -43 6 -9 15 -9 25 0 47 7 16 17 31 23 35 6 5 5
8 -3 8 -9 0 -10 5 -3 19 6 10 7 21 4 25 -3 3 -2 6 4 6 6 0 9 9 6 20 -3 11 0
20 6 20 5 0 8 7 5 15 -4 8 -1 15 6 15 6 0 9 4 5 9 -3 5 1 16 9 24 8 8 13 17
10 19 -2 3 5 13 16 23 11 10 20 23 20 29 0 6 9 17 20 24 11 7 20 19 20 28 0 8
4 13 8 10 4 -2 13 8 20 24 7 16 30 47 51 69 21 23 37 41 36 41 -2 0 19 22 46
49 27 27 49 53 49 58 0 5 9 15 19 23 11 7 18 17 16 21 -4 6 22 22 28 16 8 -7
55 40 78 80 16 26 29 44 29 38 1 -5 5 0 10 11 8 21 89 67 117 67 7 0 13 4 13
8 0 4 12 10 28 15 35 10 31 8 74 28 21 9 41 16 44 15 4 0 10 3 13 9 3 5 21 14
38 20 26 9 36 8 46 -3 11 -10 17 -11 26 -2 7 7 11 7 11 1 0 -6 7 -11 15 -11 8
0 15 5 15 11 0 6 4 6 12 -2 8 -8 17 -8 30 -1 10 5 23 7 28 4 5 -3 11 -1 14 3
3 5 22 8 43 6 21 -1 41 3 45 9 6 9 11 8 17 -2 8 -12 12 -12 25 -2 12 11 16 11
16 1 0 -10 3 -10 15 0 11 9 15 9 15 1 0 -7 5 -9 12 -5 7 5 46 9 88 11 80 3
143 9 175 17 11 2 33 5 48 5 16 1 26 4 24 9 -3 4 5 8 16 9 40 4 59 9 65 19 4
5 14 10 22 12 8 2 24 12 36 23 11 10 24 16 28 12 4 -5 7 -3 5 2 -2 11 10 64
19 79 3 6 6 26 7 45 2 20 7 62 14 95 6 32 9 61 7 65 -1 3 5 14 15 23 16 16 20
16 34 2 8 -8 19 -12 25 -9 5 3 10 1 10 -5 0 -7 7 -10 15 -6 8 3 15 1 15 -4 0
-16 19 -11 42 10 22 20 58 27 58 11 0 -5 8 -8 18 -7 9 2 37 -2 62 -9 71 -20
120 -21 131 -3 5 8 9 9 9 2 0 -12 41 -11 59 1 6 3 11 1 11 -5 0 -6 5 -8 13 -3
6 4 24 8 40 9 15 1 30 4 34 7 3 4 14 2 24 -4 13 -7 19 -6 19 1 0 6 5 8 10 5 6
-4 17 -1 25 5 12 10 15 10 15 -1 0 -9 3 -10 8 -4 15 21 60 35 124 37 38 2 68
5 68 9 0 3 17 6 37 7 42 2 88 8 88 11 0 3 34 11 58 13 9 1 17 5 17 9 0 4 8 6
18 5 9 -2 19 0 22 4 10 16 68 18 74 3 3 -8 10 -11 16 -8 5 3 10 0 10 -7 0 -9
3 -9 10 2 6 10 10 11 10 3 0 -7 7 -13 15 -13 8 0 15 -4 15 -9 0 -5 7 -12 16
-15 15 -6 15 -4 3 11 -10 12 -5 11 18 -5 23 -16 33 -19 37 -10 3 7 3 3 0 -9
-4 -18 -1 -21 15 -18 14 3 21 -2 22 -13 0 -10 3 -12 6 -5 3 10 7 10 18 0 9 -9
10 -14 1 -20 -7 -6 -4 -7 7 -3 11 3 25 -1 34 -10 9 -8 24 -13 35 -11 11 3 16
1 11 -6 -4 -6 2 -8 15 -5 12 3 21 3 20 -1 0 -3 0 -13 2 -21 1 -11 4 -9 10 5 7
15 9 16 9 4 1 -25 25 -41 39 -27 9 9 12 9 12 -1 0 -7 5 -9 10 -6 6 3 10 1 10
-5 0 -6 5 -8 10 -5 5 3 10 1 10 -4 0 -6 3 -10 8 -10 22 4 42 -2 37 -11 -9 -14
8 -12 24 3 11 10 12 9 6 -2 -6 -11 -3 -13 14 -8 14 3 24 0 27 -8 3 -7 12 -16
21 -19 11 -5 14 -2 9 11 -5 16 -5 16 6 3 7 -9 21 -14 31 -12 9 2 17 -2 17 -8
0 -9 4 -10 13 -1 8 6 18 7 23 2 15 -14 64 -22 64 -11 0 7 6 8 19 1 10 -6 21
-7 25 -4 3 3 6 1 6 -6 0 -7 5 -9 10 -6 6 4 8 10 6 14 -3 4 1 8 8 8 8 0 12 -5
10 -12 -3 -6 5 -11 16 -12 12 -1 18 3 14 9 -4 5 6 2 22 -8 21 -14 26 -15 19
-4 -8 13 -6 13 8 1 9 -7 24 -11 32 -7 8 3 15 0 15 -6 0 -7 4 -7 13 -1 11 9 26
9 45 3 4 -2 14 -4 22 -4 8 -1 14 -7 12 -14 -1 -7 2 -12 8 -12 5 0 10 7 10 17
0 14 3 14 22 -3 12 -10 18 -13 14 -6 -5 7 -1 12 9 12 11 0 15 -5 11 -16 -4
-10 -2 -13 6 -8 13 8 77 11 76 4 -2 -28 3 -32 18 -14 8 10 12 13 8 5 -5 -11 0
-13 25 -9 25 4 31 2 26 -10 -4 -12 -3 -13 10 -2 12 10 15 9 16 -6 0 -11 3 -14
6 -6 2 6 9 12 14 12 6 0 7 -4 4 -10 -3 -5 0 -7 9 -4 8 3 21 2 28 -2 19 -12 51
-13 66 -2 8 7 12 6 12 -3 0 -8 5 -6 13 6 9 12 19 15 28 10 12 -8 12 -6 0 8
-12 16 -12 17 5 10 16 -6 17 -5 6 9 -10 13 -10 18 -1 24 8 5 9 3 4 -6 -5 -8
-3 -11 6 -8 8 3 15 10 15 16 3 25 5 27 14 12 8 -12 10 -10 11 10 0 14 3 19 6
13 4 -10 9 -10 25 1 11 8 27 12 36 9 10 -5 13 -2 8 6 -10 16 55 12 66 -4 5 -6
8 -5 8 3 0 10 4 9 16 -2 8 -9 20 -14 25 -11 5 4 9 -2 10 -12 0 -16 1 -16 9 2
6 15 9 16 9 4 1 -9 8 -16 16 -16 9 0 14 6 11 14 -3 8 -1 11 4 8 6 -3 10 -13
10 -22 0 -9 6 -13 15 -10 8 4 17 2 20 -4 4 -5 10 -7 15 -4 5 3 11 1 14 -4 5
-7 41 -8 41 -1 0 1 10 3 22 4 12 1 20 -1 18 -5 -3 -4 2 -9 9 -12 8 -3 17 -1
20 6 3 8 5 8 5 -2 1 -10 4 -11 15 -2 11 9 16 9 22 0 5 -8 3 -9 -6 -4 -9 5 -11
4 -6 -3 5 -8 13 -9 25 -2 12 6 22 5 29 -2 7 -7 12 -8 12 -4 0 5 8 2 17 -5 15
-12 16 -12 9 6 -6 17 -3 16 20 -5 15 -14 24 -19 20 -12 -4 7 -1 12 8 12 9 0
16 -5 16 -10 0 -12 22 -9 32 5 5 6 8 5 8 -2 0 -8 13 -13 31 -13 16 0 28 -4 25
-8 -2 -4 4 -8 14 -8 10 0 17 3 15 6 -2 4 2 7 10 7 8 0 12 -4 9 -9 -5 -7 10
-12 29 -9 4 0 7 -5 7 -11 0 -9 4 -8 10 2 8 13 10 13 10 1 0 -11 4 -9 15 5 15
19 15 19 8 -1 -6 -17 -5 -18 9 -5 9 8 14 17 12 19 -2 2 3 12 12 22 12 13 22
15 43 9 15 -4 35 -4 43 1 9 5 22 3 34 -5 13 -10 24 -11 36 -5 12 6 18 6 18 -1
0 -5 5 -10 11 -10 5 0 7 4 4 10 -10 16 7 12 28 -8 11 -9 17 -12 14 -5 -4 6 -3
14 3 18 5 3 10 0 10 -7 0 -10 3 -9 9 2 6 8 7 18 4 24 -3 5 -1 6 6 2 6 -4 8
-13 4 -19 -4 -7 0 -6 10 2 9 7 14 18 11 25 -3 6 2 2 10 -8 15 -18 21 -15 17 8
-1 5 5 4 13 -4 14 -10 16 -10 16 6 1 18 1 18 11 1 10 -17 13 -17 34 -3 32 21
41 20 24 -1 -11 -14 -9 -14 9 1 13 11 20 26 17 34 -4 12 -3 13 10 2 12 -10 15
-10 15 0 0 9 3 10 13 2 10 -9 19 -8 35 3 13 10 23 12 27 5 4 -6 12 -5 21 5 9
8 12 20 8 26 -5 8 -3 9 6 4 10 -6 12 -4 7 9 -6 14 -4 15 14 5 15 -8 19 -8 15
0 -4 6 -2 11 4 11 6 0 9 4 6 8 -3 5 1 9 9 9 8 0 12 -4 10 -8 -8 -12 22 -18 34
-6 6 6 11 7 11 2 0 -6 5 -3 10 5 8 13 10 12 10 -2 0 -10 5 -18 11 -18 5 0 7 5
3 11 -4 8 -1 8 12 2 23 -10 45 -10 61 0 8 5 13 3 13 -4 0 -8 4 -8 15 1 11 9
15 9 15 1 0 -7 5 -9 10 -6 6 4 8 11 5 16 -4 5 2 6 12 2 17 -7 17 -5 -1 22 -35
53 -70 80 -129 99 -10 3 -15 10 -12 16 3 5 -1 10 -9 10 -14 0 -14 3 2 18 9 11
20 17 25 15 4 -2 7 -1 8 4 0 4 2 16 4 26 2 11 1 16 -2 13 -4 -3 -11 4 -17 17
-7 12 -17 23 -24 23 -7 1 -17 2 -23 3 -5 0 -7 6 -3 13 4 6 3 8 -3 5 -12 -8
-73 14 -73 26 0 4 -5 5 -10 2 -6 -4 -17 -1 -25 5 -8 6 -19 9 -25 5 -5 -3 -10
-1 -10 4 0 6 -3 10 -7 10 -5 -1 -11 0 -15 1 -19 6 -25 8 -55 15 -18 4 -33 12
-33 17 0 6 -9 8 -20 5 -11 -3 -18 -1 -14 4 3 5 -4 9 -15 9 -26 0 -71 20 -71
32 0 5 -9 18 -20 30 -11 12 -20 28 -20 35 0 7 -4 13 -10 13 -5 0 -10 9 -10 20
0 11 -4 20 -8 20 -4 0 -18 20 -30 45 -12 25 -26 45 -32 45 -5 0 -10 5 -10 10
0 6 -13 24 -30 42 -16 17 -30 35 -30 39 0 8 -27 43 -57 74 -7 7 -9 15 -6 19 4
3 1 6 -5 6 -19 0 -234 224 -224 234 3 3 0 6 -6 6 -7 0 -18 16 -26 35 -13 30
-19 35 -40 31 -18 -3 -33 4 -55 25 -17 16 -31 33 -31 38 0 17 -46 58 -62 56
-10 -2 -18 1 -18 6 0 6 -9 5 -21 -2 -13 -7 -19 -7 -15 -1 4 6 -1 10 -11 10
-26 -1 -44 5 -66 22 -30 22 -179 170 -172 170 3 0 -12 17 -34 37 -22 20 -38
40 -35 45 3 4 -2 8 -11 8 -9 0 -13 5 -10 10 3 6 2 10 -4 10 -5 0 -13 9 -16 20
-3 11 -13 20 -21 20 -8 0 -14 5 -14 10 0 6 -5 10 -10 10 -6 0 -30 19 -54 43
-26 27 -51 43 -64 42 -12 -1 -19 2 -16 7 5 7 -3 10 -22 7 -4 0 -10 4 -13 10
-4 6 -18 12 -31 13 -24 3 -77 54 -72 70 1 4 -3 8 -9 8 -5 0 -7 5 -4 10 3 6 1
10 -5 10 -7 0 -10 6 -7 13 3 8 -3 20 -13 27 -11 8 -16 18 -13 22 3 5 -4 12
-16 15 -12 3 -21 10 -21 15 0 5 -4 7 -8 4 -5 -3 -26 11 -48 31 -21 20 -42 36
-46 35 -5 -1 -8 3 -8 9 0 7 -12 24 -28 38 -24 24 -32 60 -14 62 4 0 15 2 25 4
9 2 17 -2 17 -8 0 -7 4 -6 9 2 8 13 12 13 27 0 10 -8 15 -9 11 -2 -5 8 3 11
28 10 19 -1 35 -6 35 -11 0 -5 7 -3 15 4 11 9 15 9 15 1 0 -8 6 -9 18 -4 9 5
42 8 72 8 30 0 58 5 62 10 5 6 8 4 8 -5 0 -12 2 -12 9 -2 4 7 17 14 29 15 11
0 20 6 19 12 -1 5 4 9 11 7 8 -1 11 2 8 7 -4 5 2 14 11 20 10 5 17 12 16 15
-6 13 -3 27 5 22 8 -5 10 9 11 69 1 48 -2 65 -11 65 -4 0 -8 7 -8 15 0 8 -4
15 -10 15 -5 0 -10 6 -10 14 0 7 -10 16 -22 19 -12 4 -19 9 -16 12 7 7 -73 95
-86 95 -4 0 -12 5 -19 10 -44 38 -65 58 -62 62 3 2 -11 11 -30 18 -19 8 -35
17 -35 22 0 4 -7 8 -15 8 -8 0 -15 5 -15 10 0 6 -6 10 -13 10 -8 0 -22 9 -32
20 -10 11 -20 18 -23 15 -3 -2 -14 1 -26 7 -11 7 -24 11 -28 10 -5 -1 -8 5 -8
13 0 9 -6 12 -15 9 -8 -4 -15 -1 -15 6 0 6 -5 8 -10 5 -6 -3 -10 0 -10 8 0 8
-9 13 -22 12 -13 -1 -37 7 -55 18 -25 14 -33 16 -33 5 0 -8 -3 -9 -8 -2 -4 6
-22 17 -39 25 -18 8 -33 18 -33 22 0 5 -4 6 -9 3 -14 -9 -42 5 -34 17 3 6 1 7
-5 3 -6 -4 -28 1 -49 11 -53 24 -60 26 -43 14 9 -7 10 -11 3 -11 -6 0 -15 5
-18 11 -4 6 -14 8 -22 5 -8 -3 -12 -2 -9 3 3 5 -1 12 -10 15 -8 3 -12 2 -9 -4
3 -6 -1 -7 -9 -4 -9 3 -16 10 -16 16 0 5 -4 6 -10 3 -5 -3 -10 -2 -10 3 0 6
-9 8 -20 5 -11 -3 -20 -1 -20 4 0 5 -6 10 -12 11 -7 1 -26 3 -43 6 -16 2 -52
8 -80 11 -27 4 -53 12 -57 18 -5 8 -8 8 -8 1 0 -6 -7 -11 -15 -11 -8 0 -15 4
-15 8 0 4 -9 6 -20 4 -11 -2 -22 0 -24 4 -3 4 -18 9 -33 10 -15 1 -39 3 -53 5
-14 2 -42 4 -63 5 -21 0 -36 5 -33 9 3 4 -8 7 -25 6 -16 -1 -32 2 -35 7 -3 5
-9 7 -14 4 -4 -3 -13 2 -20 10 -7 8 -16 12 -21 9 -5 -3 -9 -1 -9 4 0 5 -19 15
-42 22 -24 8 -45 17 -48 21 -3 4 -19 9 -36 11 -32 3 -50 17 -129 96 -24 23
-48 42 -54 42 -6 0 -11 5 -11 10 0 6 -7 10 -15 10 -8 0 -15 5 -15 10 0 6 -7
10 -16 10 -8 0 -12 5 -9 10 6 10 -9 15 -30 10 -5 -1 -7 2 -3 5 4 4 -12 25 -35
47 -23 21 -60 56 -82 76 -22 20 -38 41 -37 45 1 5 -2 6 -7 3 -5 -4 -11 -2 -13
2 -1 5 -29 28 -60 51 -32 24 -58 48 -58 54 0 6 -3 7 -6 4 -4 -4 -19 1 -33 11
-14 10 -38 24 -53 31 -15 8 -37 22 -47 33 -11 10 -23 18 -25 18 -9 0 -48 33
-103 88 -28 28 -59 52 -68 52 -10 0 -13 5 -9 12 5 8 0 9 -14 6 -15 -4 -22 -2
-22 9 0 8 -4 11 -10 8 -5 -3 -10 -3 -10 2 0 7 -55 44 -70 48 -26 6 -50 18 -50
26 0 5 -9 9 -20 9 -11 0 -20 3 -20 8 0 4 -11 12 -25 19 -15 7 -25 7 -25 1 0
-5 -7 -3 -15 6 -8 8 -15 20 -15 26 0 6 -4 9 -8 6 -5 -3 -18 3 -29 14 -12 10
-24 16 -27 12 -4 -3 -10 -2 -14 4 -9 14 -142 84 -159 84 -7 0 -13 4 -13 9 0 8
-53 27 -56 19 -1 -2 -12 6 -25 17 -14 13 -20 14 -15 5 5 -9 2 -8 -7 2 -8 10
-17 15 -20 12 -3 -4 -13 1 -22 10 -9 9 -21 13 -26 10 -6 -3 -20 2 -31 13 -12
10 -18 12 -13 4 6 -11 2 -10 -16 2 -13 9 -31 17 -41 17 -10 0 -18 5 -18 10 0
6 -9 10 -20 10 -11 0 -20 5 -20 10 0 6 -9 10 -20 10 -11 0 -20 5 -20 11 0 5
-4 8 -8 5 -5 -3 -20 1 -35 9 -15 8 -27 11 -27 8 0 -3 -6 -1 -12 4 -7 6 -26 14
-43 18 -45 12 -45 12 -47 14 -2 2 -14 4 -27 7 -14 2 -30 9 -38 15 -9 9 -13 8
-13 0 0 -8 -6 -7 -16 3 -8 9 -19 14 -24 11 -4 -3 -20 2 -36 10 -15 7 -32 11
-37 8 -5 -3 -12 0 -16 6 -4 6 -16 13 -27 16 -10 2 -36 9 -56 14 -20 5 -39 6
-42 3 -4 -3 -6 0 -6 6 0 7 -3 11 -7 11 -5 -1 -10 -1 -13 1 -3 1 -17 3 -32 5
-15 2 -42 10 -60 19 -34 15 -95 30 -101 24 -1 -2 -16 5 -31 16 -17 11 -25 13
-20 5 6 -12 5 -12 -8 -1 -13 10 -17 10 -21 0 -4 -9 -6 -9 -6 2 -1 11 -11 15
-36 14 -19 -1 -35 2 -35 6 0 4 -7 11 -16 14 -10 4 -13 2 -8 -7 4 -6 -1 -4 -12
5 -11 10 -30 16 -42 13 -12 -2 -27 2 -34 8 -7 7 -31 13 -53 15 -38 2 -80 9
-80 12 0 1 -11 4 -25 6 -39 7 -53 11 -78 20 -12 5 -43 9 -67 9 -25 -1 -45 3
-45 8 0 5 -9 7 -20 4 -11 -3 -20 -1 -20 3 0 5 -9 7 -20 5 -11 -2 -20 0 -20 6
0 5 -15 9 -34 9 -19 0 -38 5 -41 10 -4 6 -12 9 -18 8 -19 -4 -127 24 -127 33
0 4 -8 6 -19 4 -10 -2 -31 3 -47 11 -15 8 -36 16 -47 18 -10 1 -22 7 -25 12
-4 5 -16 11 -27 12 -11 2 -21 8 -23 12 -2 5 -10 6 -18 3 -8 -3 -14 0 -14 7 0
6 -4 8 -10 5 -5 -3 -10 -1 -10 4 0 6 -3 11 -7 10 -16 -2 -53 14 -53 22 0 5
-13 9 -30 9 -16 0 -30 5 -30 10 0 6 -7 10 -15 10 -9 0 -18 7 -21 15 -4 8 -12
15 -20 15 -7 0 -17 7 -22 16 -5 9 -12 15 -16 14 -4 -1 -26 6 -49 16 -23 9 -48
18 -55 20 -7 1 -22 12 -33 25 -10 12 -19 18 -19 14 0 -8 -7 -1 -53 55 -10 11
-23 18 -29 14 -6 -4 -8 -3 -5 3 6 10 -19 28 -34 25 -3 0 -12 15 -19 34 -8 18
-17 34 -22 34 -4 0 -8 7 -8 15 0 8 -4 15 -8 15 -5 0 -9 7 -9 15 0 31 -27 95
-40 95 -8 0 -11 5 -8 10 3 6 -1 10 -10 10 -9 0 -13 5 -10 10 3 6 1 10 -4 10
-11 0 -51 36 -51 46 0 11 -29 34 -42 34 -19 0 -58 37 -58 55 0 8 -3 14 -7 13
-5 -1 -18 3 -29 10 -12 6 -24 8 -28 5 -3 -3 -6 -1 -6 6 0 7 -6 11 -12 8 -24
-8 -105 43 -91 57 4 3 2 6 -4 6 -6 0 -9 9 -6 20 3 13 0 20 -8 21 -8 0 -24 2
-37 5 -15 3 -21 0 -17 -7 4 -6 -2 -5 -14 3 -12 7 -21 16 -21 21 0 4 -4 6 -9 3
-5 -3 -27 1 -49 8 -22 8 -44 11 -48 8 -4 -4 -4 -1 0 6 7 12 -10 17 -43 13 -7
-2 -10 2 -6 8 3 6 -2 11 -12 11 -11 0 -23 4 -29 10 -5 5 -20 11 -32 13 -13 2
-32 11 -42 20 -11 9 -20 14 -20 11 0 -3 -10 2 -22 10 -12 9 -30 16 -40 16 -10
0 -18 5 -18 11 0 5 -4 7 -10 4 -5 -3 -10 -1 -10 5 0 6 -4 9 -8 6 -5 -3 -18 2
-28 12 -10 9 -28 19 -39 20 -11 2 -22 8 -23 13 -2 5 -8 6 -14 3 -6 -4 -14 0
-19 7 -4 8 -12 14 -16 14 -4 1 -18 6 -29 13 -12 6 -24 9 -27 6 -3 -3 -29 6
-57 20 -28 14 -58 26 -66 26 -7 0 -29 9 -48 20 -19 10 -48 21 -63 24 -15 2
-30 5 -33 6 -3 1 -8 2 -12 1 -5 0 -8 4 -8 10 0 5 -4 7 -10 4 -5 -3 -10 -1 -10
5 0 7 -6 10 -12 7 -7 -2 -19 3 -26 12 -8 9 -10 10 -7 2 5 -9 0 -8 -18 4 -14 9
-28 16 -31 16 -26 -4 -46 1 -41 9 4 6 -1 7 -10 3 -10 -3 -20 -2 -24 3 -10 14
-94 54 -125 60 -16 3 -39 10 -50 17 -12 6 -24 10 -28 9 -5 -1 -8 2 -8 6 0 5
-10 8 -22 7 -13 -1 -29 3 -37 9 -11 8 -13 8 -7 -1 11 -20 -8 -15 -34 7 -13 11
-32 21 -44 21 -12 1 -41 3 -66 5 -25 1 -47 3 -50 4 -3 1 -8 2 -12 1 -5 0 -8 5
-8 12 0 8 -4 7 -10 -3 -5 -8 -10 -10 -10 -3 0 6 -8 10 -17 8 -10 -1 -24 3 -32
9 -12 9 -13 8 -6 -4 7 -12 6 -13 -6 -4 -13 10 -25 11 -54 3 -5 -1 -23 3 -39
10 -16 6 -35 10 -42 7 -8 -3 -16 -1 -18 3 -3 5 -18 7 -33 5 -15 -1 -33 2 -40
8 -9 7 -13 7 -13 -1 0 -7 -8 -8 -25 -1 -20 8 -27 6 -31 -5 -4 -8 -10 -12 -15
-9 -5 3 -6 11 -2 17 4 7 0 6 -10 -2 -12 -9 -17 -10 -17 -2 0 7 -5 9 -11 5 -6
-3 -15 0 -20 7 -6 10 -9 11 -9 2 0 -7 -9 -13 -21 -13 -13 0 -18 -4 -13 -12 4
-7 -1 -6 -12 3 -10 9 -25 14 -33 11 -8 -2 -11 0 -8 5 4 6 -4 11 -18 11 -14 0
-25 -6 -25 -12 0 -6 -4 -5 -9 3 -5 8 -11 9 -15 3z m7528 -6248 c3 -8 2 -12 -4
-9 -6 3 -10 10 -10 16 0 14 7 11 14 -7z m-3797 -341 c0 -7 -5 -13 -10 -13 -5
0 -3 -8 4 -17 12 -15 12 -16 -5 -10 -16 6 -17 5 -6 -8 7 -8 9 -15 4 -15 -5 0
-2 -5 6 -10 9 -6 10 -10 3 -10 -6 0 -10 -9 -8 -20 2 -11 -1 -20 -7 -20 -6 0
-3 -10 8 -22 10 -12 13 -18 7 -14 -9 5 -12 -1 -11 -18 1 -15 6 -26 10 -26 4 0
8 -5 8 -11 0 -5 -5 -7 -12 -3 -8 5 -8 3 -2 -7 12 -18 12 -89 1 -89 -5 0 -5 -6
2 -13 12 -16 7 -56 -10 -71 -9 -8 -10 -8 -5 2 4 6 2 12 -3 12 -6 0 -11 -4 -11
-10 0 -5 -10 -19 -22 -31 -13 -12 -17 -18 -9 -14 10 6 12 4 6 -5 -5 -8 -9 -25
-10 -38 0 -13 -9 -30 -20 -38 -10 -8 -16 -16 -13 -20 4 -3 -1 -14 -10 -24 -12
-15 -19 -17 -29 -8 -11 9 -11 14 -1 26 11 13 11 14 -1 7 -10 -6 -12 -4 -6 5
11 17 16 110 6 110 -4 0 -7 16 -7 35 1 24 6 37 18 41 10 3 18 12 18 20 0 24 1
29 13 42 8 10 7 16 -4 23 -12 7 -12 9 1 9 13 0 13 1 0 10 -13 9 -13 11 0 20
11 7 12 12 4 20 -7 7 -9 20 -7 31 5 16 8 17 21 7 12 -10 14 -10 8 0 -4 6 -3
12 2 12 5 0 9 6 10 13 1 28 12 60 24 75 11 13 11 14 0 8 -10 -6 -13 -2 -10 15
2 13 8 27 13 31 6 5 5 8 -2 8 -9 0 -8 6 4 19 12 14 19 16 28 8 6 -6 12 -17 12
-24z m183 -948 c-7 -8 -18 -15 -24 -15 -6 0 -2 7 8 15 25 19 32 19 16 0z"/>
<path d="M11615 3880 c-3 -5 -1 -10 4 -10 6 0 11 5 11 10 0 6 -2 10 -4 10 -3
0 -8 -4 -11 -10z"/>
</g>
</svg>
